<?xml version="1.0" encoding="utf-8"?>
<!-- Generator: Adobe Illustrator 26.0.1, SVG Export Plug-In . SVG Version: 6.00 Build 0)  -->
<svg version="1.1" id="Capa_1" xmlns="http://www.w3.org/2000/svg" xmlns:xlink="http://www.w3.org/1999/xlink" x="0px" y="0px"
	 viewBox="0 0 150 150" style="enable-background:new 0 0 150 150;" xml:space="preserve">
<style type="text/css">
	.st0{fill:#683DEF;}
</style>
<path class="st0" d="M31,122.7c0.7-2.7,1.3-5.3,2-8c0.3-1.1,0.5-2.1,0.8-3.2s0.9-1.5,1.8-1.3c0.8,0.2,1.2,0.9,1,2
	c-0.6,2.7-1.3,5.4-2,8.1c0,0.1,0,0.2-0.1,0.5c4-1.5,7.9-3,11.8-4.5c-1-1.2-2.1-2.3-3-3.5c-2.9-3.8-4.2-8.1-4.5-12.8
	c-0.1-2.1-0.4-4.3-0.5-6.4c-0.1-1.2,0.4-1.9,1.4-1.9c0.9,0,1.4,0.6,1.5,1.7c0.3,3.4,0.5,6.8,1,10.1c0.8,4.7,3.4,8.5,7.1,11.5
	c0.1,0.1,0.4,0.2,0.6,0.1c5.4-2,10.8-4.1,16.1-6.1c0,0,0,0,0-0.1c-0.6-0.3-1.2-0.6-1.7-0.9c-12.5-7-20-17.4-22.7-31.3
	c-0.1-0.5-0.1-1.1,0.2-1.5c0.3-0.3,0.9-0.6,1.3-0.6c0.7,0,1.1,0.6,1.2,1.3c0.3,1.5,0.6,3.1,1,4.6c3.8,12.6,11.8,21.4,23.9,26.5
	c0.3,0.1,0.7,0.3,1,0.1c3.2-1.2,6.4-2.4,9.6-3.6c-1.6-0.8-3.3-1.5-4.8-2.3C66.7,96.7,59.9,90.4,54,83c-3-3.8-5.7-7.8-7.5-12.4
	c-0.9-2.3-1.5-4.6-1.1-7c0.6-3.3,3.9-5.5,7.2-4.6c0.8,0.2,1.2,0.8,1.1,1.6c-0.1,0.8-0.7,1.2-1.6,1.2c-0.3,0-0.6-0.1-0.9-0.1
	c-1.9,0.1-3,1.2-3.1,3.1c-0.1,1.8,0.4,3.4,1.1,5c1.8,4.5,4.5,8.5,7.6,12.2c5.8,7,12.4,13,20.5,17.2c2.1,1.1,4.3,2,6.7,2.2
	c0.6,0,1.2,0,1.8-0.1c1.2-0.2,1.8-1.1,2-2.3c0.2-1.7-0.2-3.2-0.7-4.8c-0.1-0.4-0.3-0.7-0.3-1.1c-0.1-0.7,0.3-1.3,1-1.5
	s1.4,0,1.6,0.7c1.1,2.6,1.8,5.2,1.1,8c-0.4,1.8-1.6,3-3.3,3.6c-6.7,2.5-13.4,5-20.2,7.6c-11.2,4.2-22.5,8.5-33.7,12.7
	c-0.2,0.1-0.4,0.2-0.6,0.3c-0.6,0-1.2,0-1.8,0C31,123.9,31,123.3,31,122.7z"/>
<path class="st0" d="M113.9,124.6c-1.1-0.7-1.3-1.2-0.7-2.5c1-2,1-4.1,0-6.1c-0.1-0.2-0.3-0.5-0.4-0.7c-0.3,1-0.5,2-0.8,2.8
	c-0.9,2.1-2.5,3.3-4.8,3.5c-2.4,0.2-4.3-0.8-5.4-3c-1.1-2-1-4.1,0.3-6c1.2-1.7,2.8-2.7,4.7-3.3c0.2-0.1,0.4-0.1,0.6-0.2
	c-1.9-2.1-4.1-3.7-6.7-4.8c-1.3-0.5-2.6-0.8-3.9-1.2c-1-0.3-1.6-0.9-1.4-1.7c0.2-0.9,0.9-1.3,2-1.1c5.9,1.2,10.6,4.3,14,9.3
	c0.3,0.5,0.8,1,1.3,1.3c3.9,2.9,5.2,8.5,2.9,12.8c-0.2,0.4-0.6,0.6-0.9,0.9C114.5,124.6,114.2,124.6,113.9,124.6z M110.1,114.7
	L110.1,114.7c-0.1-0.3-0.1-0.7-0.2-1c-0.3-1.6-1.1-2-2.6-1.5c-1.1,0.4-2.1,1.1-2.8,2.1c-0.9,1.4-0.5,3.2,0.9,4.1
	c1.4,0.8,3.3,0.3,4-1.2C109.7,116.4,109.9,115.5,110.1,114.7z"/>
<path class="st0" d="M31,44.8c0.4-0.7,1-1,1.8-1.1c1-0.1,2.1-0.3,3.1-0.5c0.3-0.1,0.7-0.3,0.9-0.6c0.5-1,1-2,1.5-3
	c0.3-0.6,0.7-1,1.4-1s1.1,0.4,1.4,1c0.5,1,0.9,2,1.5,3c0.2,0.3,0.5,0.5,0.9,0.6c1.1,0.2,2.3,0.4,3.4,0.5c0.6,0.1,1.1,0.4,1.3,1
	s0,1.1-0.5,1.6c-0.8,0.8-1.7,1.6-2.5,2.5c-0.2,0.2-0.3,0.6-0.3,0.9c0.1,1.1,0.4,2.1,0.5,3.2c0.1,0.7,0.1,1.3-0.5,1.7
	c-0.6,0.5-1.2,0.3-1.9,0c-0.9-0.5-1.9-1-2.8-1.5c-0.3-0.1-0.8-0.2-1.1,0c-1,0.5-2,1.1-3.1,1.5c-0.5,0.2-1.2,0.2-1.6,0
	c-0.6-0.2-0.7-0.9-0.6-1.5c0.2-1.1,0.3-2.2,0.6-3.2c0.1-0.6,0-1-0.4-1.4c-1-1-1.9-2-2.9-3C31,45.4,31,45.1,31,44.8z M42.1,51
	c-0.8-2-0.2-3.5,1.5-4.7c-2.2,0.1-3.4-0.9-4-3c-0.5,2.1-1.8,3-4,3c1.8,1.2,2.2,2.7,1.6,4.8C38.9,49.5,40.5,49.8,42.1,51z"/>
<path class="st0" d="M77,83c-0.9-0.1-1.3-0.4-1.5-1.1s0.1-1.3,0.8-1.7c1.6-0.8,3.2-1.5,4.8-2.3c8.2-3.9,16.4-7.8,24.6-11.7
	c0.2-0.1,0.3-0.1,0.5-0.2c0.8-0.3,1.6-0.1,2,0.7c0.3,0.7,0.1,1.5-0.7,1.9c-1.6,0.8-3.3,1.6-4.9,2.4c-8.2,3.9-16.4,7.8-24.7,11.7
	C77.6,82.8,77.2,82.9,77,83z"/>
<path class="st0" d="M66.8,57.2c0,6.3-1.1,11.8-3.3,17.1c-0.6,1.5-1.3,3-1.9,4.6c-0.5,1.1-1.2,1.5-2.1,1.1c-0.8-0.3-1-1.2-0.6-2.2
	c1.1-2.9,2.4-5.8,3.4-8.7c2-6.4,2.2-12.8,0.9-19.4c0-0.2-0.1-0.5-0.1-0.7c-0.1-0.9,0.3-1.5,1.1-1.7s1.5,0.3,1.7,1.1
	C66.5,51.5,66.8,54.6,66.8,57.2z"/>
<path class="st0" d="M85.3,85.8c6.9,0,12.3,1,17.4,2.9c0.4,0.2,1,0.5,1.1,0.9c0.2,0.4,0,1.1-0.2,1.5c-0.4,0.6-1,0.6-1.7,0.4
	c-1.6-0.5-3.2-1.1-4.8-1.5c-6.4-1.6-12.9-1.7-19.5-0.4c-1.2,0.2-2.3,0.4-3.5,0.6c-0.8,0.1-1.5-0.4-1.6-1.1c-0.1-0.8,0.3-1.5,1.1-1.7
	C78,86.6,82.3,85.8,85.3,85.8z"/>
<path class="st0" d="M94,59.4c0,1.1,0,2.2,0,3.3c0,1.2-0.5,1.7-1.7,1.7c-2.2,0-4.5,0-6.7,0c-1.1,0-1.6-0.5-1.6-1.7
	c0-2.2,0-4.5,0-6.7c0-1.2,0.5-1.7,1.7-1.7c2.2,0,4.4,0,6.6,0c1.2,0,1.7,0.5,1.7,1.7S94,58.3,94,59.4z M86.9,57.3c0,1.5,0,2.8,0,4.2
	c1.4,0,2.8,0,4.2,0c0-1.4,0-2.8,0-4.2C89.7,57.3,88.3,57.3,86.9,57.3z"/>
<path class="st0" d="M82.8,67.2c-0.3,0.5-0.5,1-0.8,1.2c-4.7,4.2-9.3,8.4-14,12.6c-0.8,0.7-1.6,0.7-2.2,0c-0.6-0.6-0.5-1.5,0.3-2.2
	c4.6-4.2,9.3-8.3,13.9-12.5c0.5-0.5,1.1-0.8,1.7-0.4C82.1,66.3,82.4,66.8,82.8,67.2z"/>
<path class="st0" d="M109.8,98.7c-2.4,0-4.3-1.8-4.3-4.2c0-2.4,1.9-4.3,4.3-4.4c2.4,0,4.3,2,4.3,4.3
	C114.1,96.8,112.2,98.7,109.8,98.7z M109.8,93c-0.8,0-1.4,0.6-1.4,1.4s0.6,1.4,1.3,1.4c0.8,0,1.5-0.6,1.5-1.4
	C111.3,93.7,110.6,93,109.8,93z"/>
<path class="st0" d="M79.7,54.3c0,2.4-1.9,4.3-4.3,4.3s-4.3-1.9-4.3-4.3c0-2.4,1.9-4.3,4.3-4.3C77.8,50.1,79.7,52,79.7,54.3z
	 M75.5,55.8c0.8,0,1.4-0.7,1.4-1.5c0-0.7-0.7-1.4-1.4-1.4c-0.8,0-1.4,0.7-1.4,1.4C74,55.2,74.6,55.8,75.5,55.8z"/>
<path class="st0" d="M62.5,44.3c-1.6,0-2.9-1.3-2.9-2.9c0-1.6,1.3-2.9,2.9-2.8c1.5,0,2.8,1.3,2.8,2.8C65.4,43,64.1,44.3,62.5,44.3z"
	/>
<path class="st0" d="M109.8,60.9c0,1.4-0.5,2.1-1.4,2.1c-1,0-1.4-0.7-1.4-2.1c0-0.3,0-0.7,0.1-1c0.2-0.7,0.8-1.2,1.5-1.1
	c0.8,0.1,1.2,0.5,1.3,1.3C109.8,60.3,109.8,60.6,109.8,60.9z"/>
<path class="st0" d="M106.2,42.9c1.4,0,2.1,0.4,2.1,1.4s-0.7,1.5-2.1,1.5c-0.3,0-0.7,0-1-0.1c-0.8-0.2-1.2-0.7-1.2-1.4
	s0.5-1.3,1.3-1.4C105.7,42.9,105.9,42.9,106.2,42.9z"/>
<path class="st0" d="M112.1,64.6c-0.2-0.2-0.8-0.4-0.9-0.8c-0.2-0.4-0.1-1,0.2-1.5c0.3-0.5,0.7-1,1.2-1.2c0.4-0.2,1-0.3,1.4-0.1
	s0.7,0.7,0.8,1.1C114.9,63.1,113.3,64.6,112.1,64.6z"/>
<path class="st0" d="M114.8,68.7c-1.4,0-2.1-0.5-2.1-1.4c0-1,0.7-1.4,2.1-1.4c0.3,0,0.5,0,0.8,0c0.8,0.1,1.4,0.7,1.4,1.5
	s-0.6,1.3-1.5,1.4C115.2,68.7,115,68.7,114.8,68.7z"/>
<path class="st0" d="M109.8,73.7c0,1.4-0.4,2.1-1.4,2.1s-1.5-0.7-1.5-2.1c0-0.3,0-0.6,0-0.9c0.1-0.7,0.7-1.3,1.4-1.3
	c0.8,0,1.3,0.6,1.4,1.4C109.8,73.2,109.8,73.5,109.8,73.7z"/>
<path class="st0" d="M104,40.8c0,0.3,0,0.5,0,0.8c-0.1,0.8-0.6,1.4-1.4,1.4s-1.4-0.5-1.4-1.3c0-0.5,0-0.9,0-1.4
	c0-0.9,0.6-1.5,1.4-1.5s1.4,0.6,1.4,1.6C104.1,40.4,104.1,40.6,104,40.8L104,40.8z"/>
<path class="st0" d="M104.1,48c0,0.2,0,0.3,0,0.5c0,1-0.6,1.6-1.5,1.6c-0.8,0-1.4-0.6-1.4-1.5c0-0.4,0-0.8,0-1.2
	c0-0.9,0.6-1.5,1.4-1.5s1.4,0.6,1.4,1.5C104.1,47.5,104.1,47.8,104.1,48z"/>
<path class="st0" d="M99.1,42.9c0.2,0,0.3,0,0.5,0c1,0,1.6,0.6,1.6,1.4c0,0.8-0.6,1.4-1.6,1.4c-0.4,0-0.8,0-1.3,0
	c-0.9-0.1-1.4-0.7-1.4-1.5s0.6-1.3,1.5-1.4C98.6,42.9,98.8,42.9,99.1,42.9L99.1,42.9z"/>
<path class="st0" d="M105.7,63.2c0,1-1.2,1.8-2,1.2c-0.6-0.4-1.2-1-1.6-1.6c-0.6-0.8,0.2-2,1.2-2C104.2,60.8,105.7,62.3,105.7,63.2z
	"/>
<path class="st0" d="M114.8,72.6c-0.1,0.2-0.4,0.7-0.7,0.9c-0.4,0.2-1,0.2-1.4,0c-0.6-0.4-1.1-0.9-1.4-1.5c-0.2-0.4-0.2-1,0-1.4
	s0.8-0.7,1.2-0.7C113.3,69.8,114.8,71.4,114.8,72.6z"/>
</svg>
